<svg id="Слой_1" data-name="Слой 1" xmlns="http://www.w3.org/2000/svg" viewBox="0 0 1288.24 181.95">
  <defs>
    <style>
      .cls-1 {
        fill: #fff;
      }
    </style>
  </defs>
  <title>logo_white_noalign</title>
  <path class="cls-1" d="M135.86,54a17.72,17.72,0,0,0-15.29-9.63,18,18,0,0,0-18.06,22.75l7.76,27.72L91.58,122,72.89,94.86,80.66,67.1a18,18,0,0,0-18-22.71A18,18,0,0,0,48.41,72.63l16.26,23.6-10.78,38.5A1.79,1.79,0,0,0,55.61,137h4.13a1.78,1.78,0,0,0,1.72-1.3l8.78-31.37,20.61,29.9a.9.9,0,0,0,1.47,0l20.6-29.9,8.78,31.37a1.78,1.78,0,0,0,1.72,1.3h4.13a1.79,1.79,0,0,0,1.72-2.27l-10.78-38.5,16.26-23.6A17.73,17.73,0,0,0,135.86,54M67.32,86.77,54.63,68.35A10.33,10.33,0,0,1,54,57.53h0a10.48,10.48,0,0,1,19.4,7.57Zm61.21-18.42L115.84,86.77l-6-21.64a10.48,10.48,0,1,1,18.74,3.22"/>
  <path class="cls-1" d="M90.94,182.44a91,91,0,1,1,91-91,91.11,91.11,0,0,1-91,91m0-175.38a84.38,84.38,0,1,0,84.37,84.38A84.47,84.47,0,0,0,90.94,7.06"/>
  <g>
    <path class="cls-1" d="M325.25,140.55l-.14-71.4-35.42,59.5h-6.44L247.83,69.57v71H234.39v-98h11.48l40.88,68.88,40.32-68.88h11.48l.14,98Z"/>
    <path class="cls-1" d="M444.53,116.05H392.45l-10.78,24.5H367.25l44.38-98h13.86l44.52,98h-14.7Zm-4.9-11.2-21.14-48-21.14,48Z"/>
    <path class="cls-1" d="M564.09,140.55,543,110.45q-3.93.28-6.16.28H512.57v29.82h-14v-98h38.22q19,0,30,9.1t10.92,25.06q0,11.34-5.6,19.32a31.66,31.66,0,0,1-16,11.62l23.24,32.9Zm-7.42-47.46q7-5.73,7-16.38t-7-16.31q-7-5.67-20.3-5.67h-23.8v44.1h23.8Q549.66,98.83,556.67,93.09Z"/>
    <path class="cls-1" d="M646.26,97l-17.92,18.2v25.34h-14v-98h14V97.29l53.2-54.74h16l-41.86,44.1,44.52,53.9H683.78Z"/>
    <path class="cls-1" d="M723.54,138.66a9.29,9.29,0,0,1-2.8-6.93,9.13,9.13,0,0,1,2.8-6.79,9.29,9.29,0,0,1,6.72-2.73,8.93,8.93,0,0,1,6.58,2.66,10.17,10.17,0,0,1-.07,13.79,8.89,8.89,0,0,1-6.51,2.73A9.29,9.29,0,0,1,723.54,138.66Z"/>
    <path class="cls-1" d="M783.39,138.24q-10.29-3.42-16.17-8.89l5.18-10.92a42.89,42.89,0,0,0,14.35,8.19,52.71,52.71,0,0,0,18,3.15q12.18,0,18.2-4.13a12.73,12.73,0,0,0,6-11,10.84,10.84,0,0,0-3.29-8.19,22,22,0,0,0-8.12-4.83q-4.83-1.68-13.65-3.78a139.37,139.37,0,0,1-17.85-5.32,29.42,29.42,0,0,1-11.62-8.19q-4.83-5.52-4.83-14.91a25.27,25.27,0,0,1,4.13-14.14q4.13-6.3,12.53-10.08t20.86-3.78a66.13,66.13,0,0,1,17.08,2.24,45.56,45.56,0,0,1,14.42,6.44L834,61.31a51,51,0,0,0-13.16-6,49.26,49.26,0,0,0-13.72-2q-11.89,0-17.85,4.34a13.3,13.3,0,0,0-5.95,11.2,10.71,10.71,0,0,0,3.36,8.19A23.24,23.24,0,0,0,795,82a127.67,127.67,0,0,0,13.51,3.71A138.61,138.61,0,0,1,826.3,91a30,30,0,0,1,11.55,8.12q4.83,5.46,4.83,14.7a25,25,0,0,1-4.2,14.07q-4.2,6.38-12.74,10.08t-21,3.71A67,67,0,0,1,783.39,138.24Z"/>
    <path class="cls-1" d="M945.3,51.65q10.92,9.1,10.92,25.06T945.3,101.77q-10.92,9.11-30,9.1H891.12v29.68h-14v-98h38.22Q934.38,42.55,945.3,51.65ZM935.22,93q7-5.67,7-16.31t-7-16.31q-7-5.67-20.3-5.67h-23.8v44h23.8Q928.22,98.69,935.22,93Z"/>
    <path class="cls-1" d="M1048.34,116.05H996.26l-10.78,24.5H971.06l44.38-98h13.86l44.52,98h-14.7Zm-4.9-11.2-21.14-48-21.14,48Z"/>
    <path class="cls-1" d="M1118.27,135.16a47.85,47.85,0,0,1-18.55-17.92A49.65,49.65,0,0,1,1093,91.55a49.67,49.67,0,0,1,6.72-25.69,47.77,47.77,0,0,1,18.62-17.92,54.49,54.49,0,0,1,26.6-6.51,55.67,55.67,0,0,1,21,3.85,43.07,43.07,0,0,1,16.24,11.41l-9.1,8.82Q1162,53.9,1145.5,53.89a40,40,0,0,0-19.74,4.9A35.53,35.53,0,0,0,1112,72.3a37.75,37.75,0,0,0-5,19.25,37.72,37.72,0,0,0,5,19.25,35.47,35.47,0,0,0,13.79,13.51,39.92,39.92,0,0,0,19.74,4.9,36.59,36.59,0,0,0,27.58-11.76l9.1,8.82a43.54,43.54,0,0,1-16.31,11.48,55.08,55.08,0,0,1-21.07,3.92A54.08,54.08,0,0,1,1118.27,135.16Z"/>
    <path class="cls-1" d="M1287.32,128.37v12.18H1216.2v-98h69.16V54.73H1230.2v30.1h49.14v11.9H1230.2v31.64Z"/>
  </g>
</svg>
