<?xml version="1.0" encoding="UTF-8"?>
<svg width="60px" height="60px" viewBox="0 0 60 60" version="1.1" xmlns="http://www.w3.org/2000/svg" xmlns:xlink="http://www.w3.org/1999/xlink">
    <!-- Generator: Sketch 43 (38999) - http://www.bohemiancoding.com/sketch -->
    <title>img_address</title>
    <desc>Created with Sketch.</desc>
    <defs></defs>
    <g id="Mockup" stroke="none" stroke-width="1" fill="none" fill-rule="evenodd" opacity="0.5">
        <g id="A1-1_home" transform="translate(-436.000000, -5461.000000)" fill-rule="nonzero" fill="#000000">
            <g id="bottom" transform="translate(0.000000, 5090.000000)">
                <g id="adrress" transform="translate(430.000000, 337.000000)">
                    <g id="img_address" transform="translate(6.000000, 34.000000)">
                        <path d="M1,60 L59,60 C59.5522847,60 60,59.5522847 60,59 C60,58.4477153 59.5522847,58 59,58 L1,58 C0.44771525,58 0,58.4477153 0,59 C0,59.5522847 0.44771525,60 1,60 Z" id="Line"></path>
                        <path d="M42,58 L54,58 L54,15.0000319 C54,13.3469753 52.6552155,12 51.0033142,12 L42,12 L42,58 Z M40,10 L51.0033142,10 C53.7629076,10 56,12.245531 56,15.0000319 L56,60 L40,60 L40,10 Z" id="Rectangle-24-Copy"></path>
                        <path d="M40,58 L40,4.99952863 C40,3.34608556 38.6527083,2 36.9930877,2 L9.00691225,2 C7.34174667,2 6,3.34096417 6,4.99952863 L6,58 L40,58 Z M4,4.99952863 C4,2.23836521 6.23520515,0 9.00691225,0 L36.9930877,0 C39.758329,0 42,2.24256556 42,4.99952863 L42,60 L4,60 L4,4.99952863 Z" id="Rectangle-24"></path>
                        <path d="M29,58 L29,42 L17,42 L17,58 L29,58 Z M15,41.9907951 C15,40.8913093 15.8945138,40 16.9940603,40 L29.0059397,40 C30.1072288,40 31,40.8982124 31,41.9907951 L31,58.0092049 C31,59.1086907 30.1054862,60 29.0059397,60 L16.9940603,60 C15.8927712,60 15,59.1017876 15,58.0092049 L15,41.9907951 Z" id="Rectangle-25"></path>
                        <path d="M14.5,16.5 L17.5,16.5 L17.5,13.5 L14.5,13.5 L14.5,16.5 Z M14,12.5 L18,12.5 C18.2761424,12.5 18.5,12.7238576 18.5,13 L18.5,17 C18.5,17.2761424 18.2761424,17.5 18,17.5 L14,17.5 C13.7238576,17.5 13.5,17.2761424 13.5,17 L13.5,13 C13.5,12.7238576 13.7238576,12.5 14,12.5 Z" id="windows"></path>
                        <path d="M14.5,20.5 L14.5,23.5 L17.5,23.5 L17.5,20.5 L14.5,20.5 Z M14,19.5 L18,19.5 C18.2761424,19.5 18.5,19.7238576 18.5,20 L18.5,24 C18.5,24.2761424 18.2761424,24.5 18,24.5 L14,24.5 C13.7238576,24.5 13.5,24.2761424 13.5,24 L13.5,20 C13.5,19.7238576 13.7238576,19.5 14,19.5 Z" id="windows"></path>
                        <path d="M14.5,30.5 L17.5,30.5 L17.5,27.5 L14.5,27.5 L14.5,30.5 Z M14,26.5 L18,26.5 C18.2761424,26.5 18.5,26.7238576 18.5,27 L18.5,31 C18.5,31.2761424 18.2761424,31.5 18,31.5 L14,31.5 C13.7238576,31.5 13.5,31.2761424 13.5,31 L13.5,27 C13.5,26.7238576 13.7238576,26.5 14,26.5 Z" id="windows"></path>
                        <path d="M28.5,16.5 L31.5,16.5 L31.5,13.5 L28.5,13.5 L28.5,16.5 Z M28,12.5 L32,12.5 C32.2761424,12.5 32.5,12.7238576 32.5,13 L32.5,17 C32.5,17.2761424 32.2761424,17.5 32,17.5 L28,17.5 C27.7238576,17.5 27.5,17.2761424 27.5,17 L27.5,13 C27.5,12.7238576 27.7238576,12.5 28,12.5 Z" id="windows"></path>
                        <path d="M28.5,20.5 L28.5,23.5 L31.5,23.5 L31.5,20.5 L28.5,20.5 Z M28,19.5 L32,19.5 C32.2761424,19.5 32.5,19.7238576 32.5,20 L32.5,24 C32.5,24.2761424 32.2761424,24.5 32,24.5 L28,24.5 C27.7238576,24.5 27.5,24.2761424 27.5,24 L27.5,20 C27.5,19.7238576 27.7238576,19.5 28,19.5 Z" id="windows"></path>
                        <path d="M28.5,30.5 L31.5,30.5 L31.5,27.5 L28.5,27.5 L28.5,30.5 Z M28,26.5 L32,26.5 C32.2761424,26.5 32.5,26.7238576 32.5,27 L32.5,31 C32.5,31.2761424 32.2761424,31.5 32,31.5 L28,31.5 C27.7238576,31.5 27.5,31.2761424 27.5,31 L27.5,27 C27.5,26.7238576 27.7238576,26.5 28,26.5 Z" id="windows"></path>
                        <path d="M21.5,16.5 L24.5,16.5 L24.5,13.5 L21.5,13.5 L21.5,16.5 Z M21,12.5 L25,12.5 C25.2761424,12.5 25.5,12.7238576 25.5,13 L25.5,17 C25.5,17.2761424 25.2761424,17.5 25,17.5 L21,17.5 C20.7238576,17.5 20.5,17.2761424 20.5,17 L20.5,13 C20.5,12.7238576 20.7238576,12.5 21,12.5 Z" id="windows"></path>
                        <path d="M21.5,20.5 L21.5,23.5 L24.5,23.5 L24.5,20.5 L21.5,20.5 Z M21,19.5 L25,19.5 C25.2761424,19.5 25.5,19.7238576 25.5,20 L25.5,24 C25.5,24.2761424 25.2761424,24.5 25,24.5 L21,24.5 C20.7238576,24.5 20.5,24.2761424 20.5,24 L20.5,20 C20.5,19.7238576 20.7238576,19.5 21,19.5 Z" id="windows"></path>
                        <path d="M21.5,30.5 L24.5,30.5 L24.5,27.5 L21.5,27.5 L21.5,30.5 Z M21,26.5 L25,26.5 C25.2761424,26.5 25.5,26.7238576 25.5,27 L25.5,31 C25.5,31.2761424 25.2761424,31.5 25,31.5 L21,31.5 C20.7238576,31.5 20.5,31.2761424 20.5,31 L20.5,27 C20.5,26.7238576 20.7238576,26.5 21,26.5 Z" id="windows"></path>
                    </g>
                </g>
            </g>
        </g>
    </g>
</svg>