<?xml version="1.0" encoding="UTF-8"?>
<svg width="60px" height="60px" viewBox="0 0 60 60" version="1.1" xmlns="http://www.w3.org/2000/svg" xmlns:xlink="http://www.w3.org/1999/xlink">
    <!-- Generator: Sketch 43 (38999) - http://www.bohemiancoding.com/sketch -->
    <title>img_phone</title>
    <desc>Created with Sketch.</desc>
    <defs></defs>
    <g id="Mockup" stroke="none" stroke-width="1" fill="none" fill-rule="evenodd" opacity="0.5">
        <g id="A1-1_home" transform="translate(-436.000000, -5351.000000)" fill-rule="nonzero" fill="#000000">
            <g id="bottom" transform="translate(0.000000, 5090.000000)">
                <g id="phone" transform="translate(430.000000, 227.000000)">
                    <g id="img_phone" transform="translate(6.000000, 34.000000)">
                        <path d="M16,53 L55.0006068,53 C56.6594891,53 58,51.658561 58,49.9999681 L58,10.0000319 C58,8.34721746 56.654245,7 55.0006068,7 L16,7 L16,53 Z M14,5 L55.0006068,5 C57.7616954,5 60,7.24553095 60,10.0000319 L60,49.9999681 C60,52.7614095 57.7657788,55 55.0006068,55 L14,55 L14,5 Z" id="Rectangle-22"></path>
                        <path d="M46,49 L49,49 L49,46 L46,46 L46,49 Z M45,45.9998075 C45,45.4476291 45.4437166,45 45.9998075,45 L49.0001925,45 C49.5523709,45 50,45.4437166 50,45.9998075 L50,49.0001925 C50,49.5523709 49.5562834,50 49.0001925,50 L45.9998075,50 C45.4476291,50 45,49.5562834 45,49.0001925 L45,45.9998075 Z" id="key"></path>
                        <path d="M36,49 L39,49 L39,46 L36,46 L36,49 Z M35,45.9998075 C35,45.4476291 35.4437166,45 35.9998075,45 L39.0001925,45 C39.5523709,45 40,45.4437166 40,45.9998075 L40,49.0001925 C40,49.5523709 39.5562834,50 39.0001925,50 L35.9998075,50 C35.4476291,50 35,49.5562834 35,49.0001925 L35,45.9998075 Z" id="key"></path>
                        <path d="M26,49 L29,49 L29,46 L26,46 L26,49 Z M25,45.9998075 C25,45.4476291 25.4437166,45 25.9998075,45 L29.0001925,45 C29.5523709,45 30,45.4437166 30,45.9998075 L30,49.0001925 C30,49.5523709 29.5562834,50 29.0001925,50 L25.9998075,50 C25.4476291,50 25,49.5562834 25,49.0001925 L25,45.9998075 Z" id="key"></path>
                        <path d="M46,39 L49,39 L49,36 L46,36 L46,39 Z M45,35.9998075 C45,35.4476291 45.4437166,35 45.9998075,35 L49.0001925,35 C49.5523709,35 50,35.4437166 50,35.9998075 L50,39.0001925 C50,39.5523709 49.5562834,40 49.0001925,40 L45.9998075,40 C45.4476291,40 45,39.5562834 45,39.0001925 L45,35.9998075 Z" id="key"></path>
                        <path d="M36,39 L39,39 L39,36 L36,36 L36,39 Z M35,35.9998075 C35,35.4476291 35.4437166,35 35.9998075,35 L39.0001925,35 C39.5523709,35 40,35.4437166 40,35.9998075 L40,39.0001925 C40,39.5523709 39.5562834,40 39.0001925,40 L35.9998075,40 C35.4476291,40 35,39.5562834 35,39.0001925 L35,35.9998075 Z" id="key"></path>
                        <path d="M26,39 L29,39 L29,36 L26,36 L26,39 Z M25,35.9998075 C25,35.4476291 25.4437166,35 25.9998075,35 L29.0001925,35 C29.5523709,35 30,35.4437166 30,35.9998075 L30,39.0001925 C30,39.5523709 29.5562834,40 29.0001925,40 L25.9998075,40 C25.4476291,40 25,39.5562834 25,39.0001925 L25,35.9998075 Z" id="key"></path>
                        <path d="M46,29 L49,29 L49,26 L46,26 L46,29 Z M45,25.9998075 C45,25.4476291 45.4437166,25 45.9998075,25 L49.0001925,25 C49.5523709,25 50,25.4437166 50,25.9998075 L50,29.0001925 C50,29.5523709 49.5562834,30 49.0001925,30 L45.9998075,30 C45.4476291,30 45,29.5562834 45,29.0001925 L45,25.9998075 Z" id="key"></path>
                        <path d="M36,29 L39,29 L39,26 L36,26 L36,29 Z M35,25.9998075 C35,25.4476291 35.4437166,25 35.9998075,25 L39.0001925,25 C39.5523709,25 40,25.4437166 40,25.9998075 L40,29.0001925 C40,29.5523709 39.5562834,30 39.0001925,30 L35.9998075,30 C35.4476291,30 35,29.5562834 35,29.0001925 L35,25.9998075 Z" id="key"></path>
                        <path d="M26,29 L29,29 L29,26 L26,26 L26,29 Z M25,25.9998075 C25,25.4476291 25.4437166,25 25.9998075,25 L29.0001925,25 C29.5523709,25 30,25.4437166 30,25.9998075 L30,29.0001925 C30,29.5523709 29.5562834,30 29.0001925,30 L25.9998075,30 C25.4476291,30 25,29.5562834 25,29.0001925 L25,25.9998075 Z" id="key"></path>
                        <path d="M22,18.000385 C22,18.0023188 52.9925388,18 52.9925388,18 C52.9976197,18 53,11.999615 53,11.999615 C53,11.9976812 22.0074612,12 22.0074612,12 C22.0023803,12 22,18.000385 22,18.000385 Z M20,11.999615 C20,10.8952581 20.9003455,10 22.0074612,10 L52.9925388,10 C54.101229,10 55,10.8874333 55,11.999615 L55,18.000385 C55,19.1047419 54.0996545,20 52.9925388,20 L22.0074612,20 C20.898771,20 20,19.1125667 20,18.000385 L20,11.999615 Z" id="Rectangle-25"></path>
                        <path d="M2,4.99952863 L2,55.0004714 C2,56.6548297 3.34362569,58 4.99668583,58 L11.0033142,58 C12.6554242,58 14,56.6554931 14,55.0004714 L14,4.99952863 C14,3.34517031 12.6563743,2 11.0033142,2 L4.99668583,2 C3.34457576,2 2,3.34450692 2,4.99952863 Z M0,4.99952863 C0,2.23836521 2.24157855,0 4.99668583,0 L11.0033142,0 C13.7629076,0 16,2.24256556 16,4.99952863 L16,55.0004714 C16,57.7616348 13.7584215,60 11.0033142,60 L4.99668583,60 C2.23709245,60 0,57.7574344 0,55.0004714 L0,4.99952863 Z" id="Rectangle-23"></path>
                    </g>
                </g>
            </g>
        </g>
    </g>
</svg>