<?xml version="1.0" encoding="UTF-8"?>
<svg width="146px" height="40px" viewBox="0 0 146 40" version="1.1" xmlns="http://www.w3.org/2000/svg" xmlns:xlink="http://www.w3.org/1999/xlink">
    <defs></defs>
    <g id="Mockup" stroke="none" stroke-width="1" fill="none" fill-rule="evenodd">
        <g id="d1-2_cases_article" transform="translate(-20.000000, -20.000000)">
            <g id="top">
                <g id="navbar">
                    <g id="logo_c" transform="translate(20.000000, 20.000000)">
                        <polygon id="Fill-7" fill-opacity="0.5" fill="#000000" points="64.7162553 32.8116596 63.4022128 32.8116596 63.4022128 39.3597447 68.0728511 39.3597447 68.0728511 38.3563404 64.7162553 38.3563404"></polygon>
                        <polygon id="Fill-9" fill-opacity="0.5" fill="#000000" points="44.292 33.8156596 46.6094468 33.8156596 46.6094468 39.3603404 47.9217872 39.3603404 47.9217872 33.8156596 50.2332766 33.8156596 50.2332766 32.8114043 44.292 32.8114043"></polygon>
                        <path d="M57.1068936,36.6871489 L55.2524255,36.6871489 L55.5000851,36.1058723 C55.6958298,35.6445957 55.9196596,35.0735319 56.1690213,34.3875745 L56.1894468,34.3875745 C56.4405106,35.0709787 56.6643404,35.6411915 56.8609362,36.1058723 L57.1068936,36.6871489 Z M55.5749787,32.8114043 L52.7273191,39.3603404 L54.1273191,39.3603404 L54.8277447,37.6922553 L57.5315745,37.6922553 L58.2345532,39.3603404 L59.6217872,39.3603404 L56.7758298,32.8114043 L55.5749787,32.8114043 Z" id="Fill-11" fill-opacity="0.5" fill="#000000"></path>
                        <polygon id="Fill-13" fill-opacity="0.5" fill="#000000" points="73.3815319 36.5118298 76.2445106 36.5118298 76.2445106 35.5075745 73.3815319 35.5075745 73.3815319 33.8156596 76.7168511 33.8156596 76.7168511 32.8114043 72.0674894 32.8114043 72.0674894 39.3603404 76.9091915 39.3603404 76.9091915 38.3560851 73.3815319 38.3560851"></polygon>
                        <polygon id="Fill-15" fill-opacity="0.5" fill="#000000" points="91.1171064 33.8156596 93.4345532 33.8156596 93.4345532 39.3603404 94.7468936 39.3603404 94.7468936 33.8156596 97.059234 33.8156596 97.059234 32.8114043 91.1171064 32.8114043"></polygon>
                        <path d="M104.023574,38.4699574 C103.644851,38.4699574 103.306128,38.4197447 103.008255,38.3193191 C102.709532,38.2205957 102.456766,38.0725106 102.249957,37.876766 C102.041447,37.6810213 101.884,37.437617 101.77166,37.1448511 C101.661021,36.8546383 101.605702,36.5150638 101.605702,36.1295319 C101.605702,35.7422979 101.666128,35.396766 101.788681,35.0954894 C101.910383,34.7933617 102.078043,34.5388936 102.295915,34.3346383 C102.512085,34.1278298 102.769106,33.9720851 103.072085,33.8648511 C103.373362,33.757617 103.705277,33.7022979 104.061872,33.7022979 C104.298468,33.7022979 104.539319,33.7193191 104.785277,33.7525106 C105.032085,33.784 105.299319,33.8401702 105.585277,33.9227234 L105.585277,32.9057021 C105.367404,32.836766 105.122298,32.7831489 104.85166,32.7465532 C104.578468,32.7082553 104.290809,32.690383 103.986979,32.690383 C103.394638,32.6937872 102.861872,32.7831489 102.390383,32.9635745 C101.922298,33.1422979 101.529957,33.3899574 101.217617,33.7022979 C100.904426,34.0171915 100.665277,34.3857021 100.497617,34.8129362 C100.33166,35.2410213 100.248255,35.7057021 100.248255,36.2027234 C100.248255,36.6886809 100.325702,37.1337872 100.481447,37.5371915 C100.637191,37.9405957 100.869532,38.2861277 101.178468,38.5746383 C101.488255,38.864 101.875489,39.0869787 102.336766,39.2444255 C102.798043,39.4044255 103.332511,39.4818723 103.939319,39.4818723 C104.250809,39.4818723 104.551234,39.464 104.839745,39.4274043 C105.129106,39.3891064 105.398043,39.3363404 105.649106,39.2708085 L105.649106,38.2393191 C105.401447,38.3142128 105.138468,38.371234 104.856766,38.4120851 C104.573362,38.450383 104.295915,38.4699574 104.023574,38.4699574" id="Fill-17" fill-opacity="0.5" fill="#000000"></path>
                        <polygon id="Fill-19" fill-opacity="0.5" fill="#000000" points="111.065617 32.8116596 109.751574 32.8116596 109.751574 39.3597447 114.422213 39.3597447 114.422213 38.3563404 111.065617 38.3563404"></polygon>
                        <path d="M123.140936,37.1318298 C123.035404,37.4297021 122.886468,37.6782128 122.696681,37.8748085 C122.507745,38.0731064 122.280511,38.2203404 122.020936,38.3199149 C121.758809,38.4203404 121.473702,38.4697021 121.163064,38.4697021 C120.851574,38.4697021 120.566468,38.4203404 120.303489,38.3199149 C120.043915,38.2203404 119.819234,38.0731064 119.628596,37.8748085 C119.43966,37.6782128 119.292426,37.4297021 119.183489,37.1318298 C119.076255,36.8322553 119.022638,36.4833191 119.022638,36.0867234 C119.022638,35.6892766 119.076255,35.3386383 119.183489,35.0424681 C119.292426,34.7428936 119.43966,34.4935319 119.628596,34.2960851 C119.819234,34.0969362 120.043915,33.948 120.303489,33.8492766 C120.566468,33.7522553 120.851574,33.7028936 121.163064,33.7028936 C121.473702,33.7028936 121.758809,33.7522553 122.020936,33.8492766 C122.280511,33.948 122.507745,34.0969362 122.696681,34.2960851 C122.886468,34.4935319 123.035404,34.7428936 123.140936,35.0424681 C123.249021,35.3386383 123.301787,35.6892766 123.301787,36.0867234 C123.301787,36.4833191 123.249021,36.8322553 123.140936,37.1318298 M123.745191,33.6399149 C123.446468,33.3386383 123.078809,33.1062979 122.645617,32.9394894 C122.210723,32.7735319 121.717106,32.6901277 121.163064,32.6901277 C120.607319,32.6901277 120.112851,32.7735319 119.67966,32.9394894 C119.245617,33.1062979 118.87966,33.3386383 118.580085,33.6399149 C118.281362,33.9403404 118.054128,34.2969362 117.898383,34.7131064 C117.743489,35.1292766 117.666043,35.5871489 117.666043,36.0867234 C117.666043,36.5845957 117.743489,37.0441702 117.898383,37.4594894 C118.054128,37.8748085 118.281362,38.2322553 118.580085,38.5335319 C118.87966,38.8339574 119.245617,39.0662979 119.67966,39.2331064 C120.112851,39.3982128 120.607319,39.4824681 121.163064,39.4824681 C121.717106,39.4824681 122.210723,39.3982128 122.645617,39.2331064 C123.078809,39.0662979 123.446468,38.8339574 123.745191,38.5335319 C124.043064,38.2322553 124.270298,37.8748085 124.426043,37.4594894 C124.581787,37.0441702 124.658383,36.5845957 124.658383,36.0867234 C124.658383,35.5871489 124.581787,35.1292766 124.426043,34.7131064 C124.270298,34.2969362 124.043064,33.9403404 123.745191,33.6399149" id="Fill-21" fill-opacity="0.5" fill="#000000"></path>
                        <path d="M133.499915,36.56 C133.499915,37.0255319 133.439489,37.3855319 133.318638,37.6476596 C133.181617,37.9370213 132.98417,38.147234 132.722043,38.2757447 C132.461617,38.4051064 132.154383,38.4697872 131.801191,38.4697872 C131.446298,38.4697872 131.139064,38.4051064 130.878638,38.2757447 C130.616511,38.147234 130.419064,37.9370213 130.282043,37.6476596 C130.161191,37.3855319 130.100766,37.0255319 130.100766,36.56 L130.100766,32.8119149 L128.786723,32.8119149 L128.786723,36.6697872 C128.786723,36.9429787 128.803745,37.1897872 128.838638,37.412766 C128.870979,37.6348936 128.927149,37.8365957 129.006298,38.0187234 C129.103319,38.2468085 129.230979,38.453617 129.392681,38.6331915 C129.552681,38.813617 129.749277,38.9676596 129.977362,39.093617 C130.207149,39.2195745 130.470128,39.3148936 130.770553,39.3812766 C131.070979,39.4493617 131.409702,39.4825532 131.78417,39.4825532 C132.16034,39.4825532 132.498213,39.4493617 132.802894,39.3812766 C133.105872,39.3148936 133.37566,39.2195745 133.609702,39.093617 C133.843745,38.9676596 134.043745,38.813617 134.206298,38.6331915 C134.368,38.453617 134.497362,38.2468085 134.594383,38.0187234 C134.673532,37.8365957 134.729702,37.6348936 134.762043,37.412766 C134.796936,37.1897872 134.813957,36.9429787 134.813957,36.6697872 L134.813957,32.8119149 L133.499915,32.8119149 L133.499915,36.56 Z" id="Fill-24" fill-opacity="0.5" fill="#000000"></path>
                        <path d="M86.0244255,35.7771064 C86.0244255,36.1660426 86.0448511,36.785617 86.0891064,37.638383 L86.0559149,37.638383 C85.7350638,37.118383 85.3154894,36.5251915 84.8014468,35.8554043 L82.4422979,32.812 L81.0635745,32.812 L81.0635745,39.3600851 L82.3784681,39.3600851 L82.3784681,36.3958298 C82.3784681,35.9541277 82.3563404,35.3337021 82.3129362,34.5285957 L82.3452766,34.5285957 C82.7844255,35.2188085 83.2108085,35.8239149 83.6210213,36.345617 L85.9605957,39.3600851 L87.336766,39.3600851 L87.336766,32.812 L86.0244255,32.812 L86.0244255,35.7771064 Z" id="Fill-27" fill-opacity="0.5" fill="#000000"></path>
                        <path d="M143.78834,37.3138723 C143.592596,37.6449362 143.304085,37.8951489 142.921106,38.069617 C142.487915,38.2602553 141.887915,38.3564255 141.117702,38.3564255 L140.578128,38.3564255 L140.578128,33.816 L141.156,33.816 C141.467489,33.816 141.747489,33.8304681 141.998553,33.8645106 C142.249617,33.896 142.476851,33.949617 142.679404,34.0219574 C142.897277,34.1002553 143.093872,34.1989787 143.267489,34.3189787 C143.439404,34.4406809 143.587489,34.5845106 143.70834,34.7530213 C143.830894,34.9189787 143.924511,35.1121702 143.98834,35.3274894 C144.05217,35.5428085 144.085362,35.7836596 144.085362,36.0525957 C144.085362,36.563234 143.985787,36.9845106 143.78834,37.3138723 M144.832596,34.163234 C144.634298,33.9045106 144.389191,33.682383 144.093872,33.4917447 C143.801957,33.3036596 143.464936,33.1521702 143.082809,33.042383 C142.952596,33.003234 142.811319,32.9700426 142.658128,32.9428085 C142.503234,32.9138723 142.344936,32.8908936 142.181532,32.8704681 C142.017277,32.8525957 141.847064,32.8364255 141.675149,32.8262128 C141.500681,32.8177021 141.330468,32.8117447 141.161957,32.8117447 L139.264085,32.8117447 L139.264085,39.3598298 L140.967915,39.3598298 C141.451319,39.3598298 141.885362,39.3334468 142.271745,39.2806809 C142.658128,39.229617 143.00366,39.1513191 143.307489,39.0466383 C143.671745,38.922383 143.985787,38.7640851 144.253872,38.5691915 C144.518553,38.3768511 144.740681,38.1504681 144.916,37.8968511 C145.090468,37.643234 145.222383,37.3615319 145.30834,37.0534468 C145.392596,36.7445106 145.436,36.4134468 145.436,36.0611064 C145.436,35.6908936 145.384936,35.3445106 145.282809,35.0270638 C145.182383,34.7079149 145.031745,34.4202553 144.832596,34.163234" id="Fill-29" fill-opacity="0.5" fill="#000000"></path>
                        <path d="M67.2852766,26.6871489 L53.4784681,26.6871489 C52.8844255,26.6871489 52.7363404,26.6871489 52.7363404,26.3901277 L52.7363404,23.2718298 L48.7278298,23.2718298 L48.7278298,26.2411915 C48.7278298,27.874383 49.6180426,28.9135319 51.2520851,28.9135319 L65.504,28.9135319 C66.691234,28.9135319 67.2852766,28.1714043 67.2852766,26.6871489" id="Fill-31" fill="#000000"></path>
                        <path d="M66.9881702,26.3904681 L66.9881702,23.8662128 C66.9881702,23.4211064 66.6911489,23.1240851 66.0979574,23.1240851 L62.9796596,23.1240851 C62.5345532,23.1240851 62.2366809,23.2721702 61.7924255,23.4211064 L59.4171064,24.6083404 C58.9711489,24.9053617 58.6741277,24.9053617 58.5260426,24.6083404 L57.932,23.1240851 L53.478383,23.1240851 L54.6664681,25.7964255 C54.8145532,26.2406809 55.1115745,26.3904681 55.705617,26.3904681 L58.5260426,26.3904681 C58.8230638,26.3904681 59.2681702,26.3904681 59.5651915,26.0925957 L62.6826383,24.6083404 L62.6826383,26.3904681 L66.9881702,26.3904681 Z" id="Fill-33" fill="#000000"></path>
                        <polygon id="Fill-35" fill="#000000" points="119.394128 6.94229787 113.158383 6.94229787 113.158383 5.75421277 109.149872 5.75421277 109.149872 6.94229787 103.211149 6.94229787 103.211149 10.0597447 119.394128 10.0597447"></polygon>
                        <path d="M101.875915,26.6871489 L101.875915,14.8097021 L99.3516596,14.8097021 C101.133787,12.434383 102.469106,9.46587234 102.766979,5.90246809 L99.0554894,5.90246809 C98.6095319,8.57480851 97.570383,10.6531064 96.0861277,11.9892766 L96.2342128,16.7399149 L97.7184681,16.1458723 L97.7184681,28.9135319 L99.0554894,28.9135319 C100.984851,28.9135319 101.875915,28.1714043 101.875915,26.6871489" id="Fill-37" fill="#000000"></path>
                        <polygon id="Fill-39" fill="#000000" points="71.1446809 9.16902128 92.5225532 9.16902128 92.5225532 5.75370213 71.1446809 5.75370213"></polygon>
                        <polygon id="Fill-41" fill="#000000" points="103.509787 14.8098723 119.097021 14.8098723 119.097021 11.6932766 103.509787 11.6932766"></polygon>
                        <path d="M44.1257872,20.7488511 L44.1257872,22.6790638 L66.8389787,22.6790638 L66.8389787,17.4824681 C66.8389787,15.9982128 65.949617,15.255234 64.3155745,15.255234 L63.5734468,15.255234 L63.5734468,14.3650213 L67.2849362,14.3650213 L67.2849362,12.2867234 L63.5734468,12.2867234 L63.5734468,11.3956596 L66.9879149,11.3956596 L66.9879149,9.61438298 L63.5734468,9.61438298 L63.5734468,8.72417021 L67.1368511,8.72417021 L67.1368511,6.64502128 L63.5734468,6.64502128 L63.5734468,5.75395745 L59.5657872,5.75395745 L59.5657872,6.64502128 L56.2994043,6.64502128 L56.2994043,8.72417021 L58.3777021,8.72417021 C59.1198298,8.72417021 59.5657872,8.87225532 59.5657872,9.3173617 L59.5657872,9.61438298 L56.4474894,9.61438298 L56.4474894,11.3956596 L58.5257872,11.3956596 C59.1198298,11.3956596 59.5657872,11.5437447 59.5657872,11.9897021 L59.5657872,12.2867234 L56.002383,12.2867234 L56.002383,14.3650213 L58.228766,14.3650213 C58.9708936,14.3650213 59.5657872,14.5139574 59.5657872,14.9582128 L59.5657872,15.255234 L51.8457872,15.255234 L51.8457872,14.2160851 L54.963234,14.2160851 L54.963234,12.1386383 L51.8457872,12.1386383 L51.8457872,11.3956596 L54.963234,11.3956596 L54.963234,9.61438298 L51.8457872,9.61438298 L51.8457872,8.72417021 L54.963234,8.72417021 L54.963234,6.64502128 L51.8457872,6.64502128 L51.8457872,5.75395745 L47.6883404,5.75395745 L47.6883404,6.64502128 L43.9777021,6.64502128 L43.9777021,8.72417021 L46.3521702,8.72417021 C47.3921702,8.72417021 47.6883404,8.87225532 47.6883404,9.3173617 L47.6883404,9.61438298 L44.2738723,9.61438298 L44.2738723,11.3956596 L46.5011064,11.3956596 C47.3921702,11.3956596 47.6883404,11.5437447 47.6883404,11.9897021 L47.6883404,12.1386383 L43.9777021,12.1386383 L43.9777021,14.2160851 L46.3521702,14.2160851 C47.3921702,14.2160851 47.6883404,14.5139574 47.6883404,14.9582128 L47.6883404,15.255234 L44.4228085,15.255234 L44.4228085,17.334383 L61.4951489,17.334383 C62.3862128,17.334383 62.683234,17.4824681 62.683234,17.9275745 L62.683234,18.0756596 L44.7198298,18.0756596 L44.7198298,20.0058723 L61.643234,20.0058723 C62.3862128,20.0058723 62.683234,20.0058723 62.683234,20.3037447 L62.683234,20.7488511 L44.1257872,20.7488511 Z" id="Fill-42" fill="#000000"></path>
                        <path d="M93.1163404,23.4208511 C92.9682553,21.4906383 91.9291064,20.0055319 89.9988936,19.2642553 C88.3657021,18.5212766 86.7333617,18.6702128 85.2482553,20.0055319 C84.2099574,21.0455319 84.0610213,22.0855319 84.6550638,23.1238298 C84.8031489,21.6387234 85.5452766,20.8965957 86.8814468,20.7485106 C88.3657021,20.7485106 89.1086809,21.3425532 89.4057021,22.6787234 C89.7018723,24.1629787 88.9597447,25.2021277 87.4754894,25.647234 L75.5988936,25.647234 L81.6848511,15.8497872 L93.4142128,15.8497872 L93.4142128,12.4344681 L70.1061277,12.4344681 L70.1061277,15.8497872 L76.6380426,15.8497872 L70.9963404,24.7561702 C70.4031489,27.4293617 71.4422979,28.913617 74.4108085,28.913617 L88.8116596,28.913617 C92.0780426,28.6174468 93.5614468,26.8353191 93.1163404,23.4208511" id="Fill-43" fill="#000000"></path>
                        <polygon id="Fill-44" fill="#000000" points="103.508936 18.9664681 119.09617 18.9664681 119.09617 15.9979574 103.508936 15.9979574"></polygon>
                        <path d="M107.517532,23.4208511 L113.307319,23.4208511 C114.494553,23.4208511 115.236681,24.0148936 115.236681,24.9051064 L115.236681,25.647234 L107.517532,25.647234 L107.517532,23.4208511 Z M103.360085,28.913617 L119.245191,28.913617 L119.245191,23.7178723 C119.394128,21.4906383 118.057957,20.3034043 115.682638,20.3034043 L106.923489,20.3034043 C104.697106,20.3034043 103.360085,21.4906383 103.360085,23.7178723 L103.360085,28.913617 Z" id="Fill-45" fill="#000000"></path>
                        <path d="M127.410383,16.8883404 L138.989957,16.8883404 C140.178043,16.8883404 140.623149,17.1862128 140.623149,17.7794043 L140.623149,18.0764255 L127.410383,18.0764255 L127.410383,16.8883404 Z M127.410383,13.3249362 L138.989957,13.3249362 C140.178043,13.3249362 140.623149,13.4738723 140.623149,14.0679149 L140.623149,14.5138723 L127.410383,14.5138723 L127.410383,13.3249362 Z M127.410383,9.3172766 L138.989957,9.3172766 C140.178043,9.3172766 140.623149,9.61429787 140.623149,10.3564255 L140.623149,10.802383 L127.410383,10.802383 L127.410383,9.3172766 Z M123.253787,20.748766 L144.928681,20.748766 L144.928681,10.802383 C144.928681,8.12919149 143.444426,6.79302128 140.623149,6.79302128 L128.301447,6.79302128 L128.598468,5.75387234 L124.292936,5.75387234 C123.995915,6.64493617 123.253787,7.536 122.215489,8.27812766 L122.215489,12.1385532 L123.253787,11.6934468 L123.253787,20.748766 Z" id="Fill-46" fill="#000000"></path>
                        <path d="M145.225362,25.3507234 L145.225362,22.5302979 C145.076426,21.4902979 144.335149,21.0451915 143.147064,21.0451915 L141.216851,21.0451915 C140.62366,21.0451915 140.325787,21.1941277 140.028766,21.4902979 L137.654298,23.4205106 C137.357277,23.7175319 136.911319,23.7175319 136.764085,23.2724255 L136.169191,21.1941277 L131.715574,21.1941277 L133.051745,24.905617 C133.051745,25.2017872 133.644936,25.3507234 134.387915,25.3507234 L137.20834,25.3507234 C137.506213,25.3507234 137.951319,25.3507234 138.24834,25.2017872 L141.067915,22.9754043 L141.067915,25.3507234 L145.225362,25.3507234 Z" id="Fill-47" fill="#000000"></path>
                        <path d="M131.715489,26.0929362 C131.270383,26.0929362 130.973362,25.9448511 130.973362,25.4997447 L130.973362,21.1942128 L127.113787,21.1942128 L127.113787,25.7959149 C127.113787,27.8750638 128.301021,28.9133617 130.825277,28.9133617 L143.444,28.9133617 C144.78017,28.9133617 145.523149,28.3193191 145.523149,27.2818723 L145.523149,26.0929362 L131.715489,26.0929362 Z" id="Fill-48" fill="#000000"></path>
                        <path d="M122.65966,28.9137021 L124.589872,28.9137021 C125.777106,28.765617 126.371149,28.1715745 126.371149,26.6873191 L126.371149,21.3426383 L122.65966,21.3426383 L122.65966,28.9137021 Z" id="Fill-49" fill="#000000"></path>
                        <path d="M47.9854468,27.4293617 L47.9854468,23.4208511 L44.2739574,23.4208511 L44.2739574,28.913617 L45.9071489,28.913617 C46.9462979,28.913617 47.6884255,28.3195745 47.9854468,27.4293617" id="Fill-50" fill="#000000"></path>
                        <path d="M15.3644255,0 C14.4333617,0 13.6886809,0 12.850383,0.186382979 C15.5508085,0.372765957 17.5993191,0.838297872 18.810383,1.49021277 C20.1133617,2.14212766 20.9516596,2.70042553 21.2308085,3.07319149 C21.6963404,3.63148936 21.7891064,4.09787234 21.6035745,4.65617021 C21.4171915,5.21531915 20.9516596,5.68085106 20.0205957,5.96 C19.5550638,6.14553191 18.9959149,6.42553191 18.437617,6.79744681 C17.6920851,7.26382979 17.1201702,7.71829787 16.7610213,8.19404255 C16.0665532,9.11489362 15.6435745,10.2434043 15.4580426,11.453617 C15.3644255,12.4782979 15.3644255,13.4093617 15.6435745,14.4340426 C15.8299574,15.4578723 16.5754894,16.3889362 17.5065532,17.227234 C18.437617,18.0655319 19.7414468,18.5310638 21.4171915,18.4374468 C23.0001702,18.2510638 24.0248511,17.506383 24.211234,15.9234043 C24.396766,14.5268085 23.8384681,13.5021277 22.7210213,12.8502128 C23.2801702,13.5957447 23.3720851,14.3404255 23.0929362,14.9923404 C22.8137872,15.7370213 22.0469787,16.172766 21.0444255,16.2025532 C20.1201702,16.2297872 19.2478298,15.6953191 18.810383,15.0851064 C18.2852766,14.3531915 18.157617,13.7812766 18.157617,12.9438298 C18.251234,12.1982979 18.530383,11.64 18.810383,11.1744681 C19.0886809,10.8017021 19.5550638,10.4297872 20.0205957,10.1497872 C20.4861277,9.8706383 20.9525106,9.71319149 21.4171915,9.68425532 C22.0308085,9.64680851 22.6342128,9.64595745 23.2801702,9.77787234 C24.0401702,9.93276596 24.5542128,10.2731915 25.1422979,10.8017021 C25.6708085,11.2782979 26.1661277,11.9191489 26.4452766,12.4782979 C27.0035745,13.9676596 27.0971915,15.7370213 27.0035745,17.6 C26.8180426,18.7165957 26.5380426,19.9276596 25.8869787,20.8587234 C25.4214468,21.7897872 24.7695319,22.5344681 24.0248511,23.372766 C23.2801702,24.3038298 22.5346383,25.2348936 21.9754894,26.2595745 C21.4171915,27.2842553 21.0444255,28.6808511 21.0444255,30.5429787 C21.0444255,32.3123404 20.7652766,33.9880851 20.0205957,35.4782979 C19.4614468,36.8748936 18.157617,38.2723404 16.4818723,39.4825532 C18.251234,39.2961702 19.8342128,38.5514894 21.0444255,37.2476596 C21.7891064,36.6885106 22.3482553,35.8510638 22.6274043,35.1055319 C23.0929362,34.3608511 23.2801702,33.4297872 23.3720851,32.4978723 L23.7457021,30.4502128 C23.931234,29.332766 24.3031489,28.4017021 25.0486809,27.5634043 L26.1661277,26.1668085 C26.1661277,26.1668085 26.1661277,26.0731915 26.2597447,26.0731915 C27.9354894,24.3974468 29.1457021,22.4417021 29.797617,20.3931915 C30.356766,18.8102128 30.6359149,17.133617 30.6359149,15.3642553 C30.6359149,11.0817021 29.1457021,7.4493617 26.1661277,4.56340426 C23.1865532,1.49021277 19.5550638,0 15.3644255,0" id="Fill-4" fill="#AADD66"></path>
                        <path d="M19.2750638,26.6322553 C19.5550638,25.7939574 19.5550638,24.8628936 19.4614468,23.9318298 C19.3686809,22.9999149 18.9959149,22.1624681 18.3448511,21.3241702 C17.8793191,20.7658723 17.3201702,20.3003404 16.7610213,19.9275745 C15.8299574,19.4620426 14.8061277,19.0892766 13.7814468,19.0892766 C13.9678298,18.0654468 14.1542128,17.1335319 14.0605957,16.0169362 C14.0605957,14.8994894 13.9678298,14.0611915 13.5950638,13.4092766 C13.0359149,12.3845957 12.1771915,11.7301277 11.1746383,11.4535319 C9.95251064,11.1173617 8.93974468,11.4535319 7.82229787,12.1982128 C8.75251064,12.1982128 9.40442553,12.3845957 9.87080851,12.6645957 C10.3363404,12.9437447 10.7950638,13.3522553 11.0810213,13.9675745 C11.3295319,14.5020426 11.3559149,15.2041702 11.2674043,16.1097021 C11.1763404,17.040766 10.9874043,17.6926809 10.5218723,18.2518298 C10.0563404,18.8101277 9.40442553,19.2756596 8.75251064,19.5548085 C7.91506383,19.7411915 7.35591489,19.8348085 6.704,19.7411915 C6.05293617,19.7411915 5.49378723,19.4620426 5.02825532,19.0892766 C4.46995745,18.6237447 3.94740426,18.1318298 3.72442553,17.5999149 C3.41804255,16.8654468 3.25889362,16.1097021 3.16612766,15.0850213 C3.07251064,14.0611915 3.07251064,12.8501277 3.25889362,11.4535319 C3.4452766,10.0569362 3.81378723,8.75140426 4.28357447,7.63651064 C4.86485106,6.25438298 5.35676596,5.49523404 6.14570213,4.28331915 C7.0946383,2.97608511 7.63591489,2.32842553 8.38059574,1.67651064 C6.984,2.32842553 5.68017021,3.25948936 4.46995745,4.56331915 C1.48953191,7.4492766 0.000170212766,11.081617 0.000170212766,15.3641702 C0.000170212766,17.3156596 0.336340426,18.8177872 0.558468085,19.7411915 C0.610382979,19.9582128 0.80612766,20.2994894 0.898893617,20.5794894 C1.55080851,22.628 2.70059574,24.3973617 4.37634043,26.0731064 L4.46995745,26.1667234 L5.58740426,27.5633191 C6.33208511,28.401617 6.704,29.3326809 6.89038298,30.4501277 L7.26314894,32.4986383 C7.35846809,33.0033191 7.3933617,33.2339574 7.44953191,33.5224681 C7.60357447,34.3233191 7.72868085,34.6399149 7.91506383,35.1054468 C8.38059574,35.8509787 8.84612766,36.6884255 9.59080851,37.2475745 C10.8018723,38.5514043 12.291234,39.2033191 13.9678298,39.4824681 C12.9431489,38.8305532 12.0120851,37.8986383 11.1746383,36.5020426 C10.3363404,35.2918298 9.93804255,34.0739574 9.77719149,32.9641702 C9.65378723,32.1131064 9.59080851,31.1948085 9.59080851,30.8228936 C9.59080851,30.4501277 9.6546383,29.8909787 9.59080851,29.2390638 C9.53548936,28.6773617 9.40442553,27.8424681 9.1252766,26.9114043 C8.84612766,25.9803404 8.84612766,25.2348085 9.03251064,24.5828936 C9.21804255,23.8382128 9.57123404,23.0705532 10.2427234,22.534383 C11.0784681,21.8688511 11.9193191,21.7897021 13.1295319,21.7897021 C14.2469787,21.7897021 14.9916596,22.1624681 15.6435745,22.814383 C16.2027234,23.4662979 16.5754894,24.2109787 16.5754894,24.9556596 C16.6682553,25.7011915 16.5754894,26.4458723 16.2954894,27.0050213 C16.0163404,27.5633191 15.7329362,28.0237447 15.2716596,28.308 C14.8444255,28.5709787 14.2469787,28.5871489 13.6886809,28.494383 C13.1295319,28.401617 12.756766,27.9360851 12.664,27.3769362 C12.477617,26.6322553 12.664,25.9803404 13.1295319,25.5148085 C11.9193191,26.2594894 11.4537872,27.3769362 12.0120851,28.7735319 C12.0291064,28.8228936 12.2291064,29.1582128 12.570383,29.4254468 C12.8818723,29.6688511 13.1227234,29.8365106 13.5022979,29.9845957 C14.1227234,30.2262979 14.8988936,30.1701277 15.7371915,29.9845957 C16.5754894,29.7982128 17.2265532,29.3326809 17.8793191,28.7735319 C18.530383,28.121617 18.9959149,27.3769362 19.2750638,26.6322553" id="Fill-1" fill="#44BBEE"></path>
                    </g>
                </g>
            </g>
        </g>
    </g>
</svg>